<?xml version="1.0" encoding="UTF-8"?>
<svg id="Layer_2" data-name="Layer 2" xmlns="http://www.w3.org/2000/svg" viewBox="0 0 1600.36 1902.01">
  <defs>
    <style>
      .cls-1 {
        fill: #fff;
      }
    </style>
  </defs>
  <g id="Layer_1-2" data-name="Layer 1">
    <g>
      <path class="cls-1" d="M565.6,1451.73V184.12c0-54.96.8-184.12-99.73-184.12h-153.02c-13.72,0-22.21,19.7-10,25.95,16.46,8.48,139.61,59.74,139.61,182.84s.72,464.71,1.27,575.48c-.55,110.72-1.27,391.84-1.27,510.56,0,152.56-92.35,192.91-134.5,230.48-10.22,9.12-3.72,25.95,10,25.95h147.91c55.07,0,99.73-44.58,99.73-99.54Z"/>
      <path class="cls-1" d="M612.82,1451.8c0,55.08,44.7,99.54,99.75,99.54h122.74c12.76,0,18.9-15.8,9.33-24.2-42.11-36.7-108.63-119.16-108.63-274.27,0-86.57-.37-237.33-.84-355.5,80.16-116.02,186.6-56.08,301.84-49.51,2.54.16,5.05.24,7.57.24,2.92,0,5.81-.08,8.73-.32,1.92-.12,3.84-.28,5.73-.52,2.37-.24,4.68-.52,7.03-.91,3.27-.48,6.58-1.08,9.84-1.83,8.15-1.81,16.21-4.29,24.15-7.3,71.9-26.73,134.72-97.54,164.31-138.78.99-1.3,1.96-2.58,2.89-3.81.23-.4.51-.76.67-1.23.06-.11.08-.16.08-.16.11-.28.21-.59.3-.92,2.59-6.16,1.8-16.35-7.27-13.73,3.37-.87,5.44.29,6.61,2.34-1.18-1.98-3.23-3.1-6.53-2.26-.76.16-1.6.44-2.52.92-102.04,30.13-189.81-38.85-323.57-25.19-92.72,9.35-162.1,99.62-200.18,163.62-.08-12.18-.08-23.48-.16-33.71.12-26.63.35-56.76.43-88.87v-16.56c.16-12.7.16-25.63.16-38.85.23-30.84.39-62.33.39-93.61.1-8.92.1-17.87.1-26.71.16-48.76.23-111.92.23-152.87,0-9.23.23-18.19.74-27.03.06-3.26.29-6.65.53-9.83.12-2.51.35-5.05.61-7.4.35-4.74.82-9.39,1.51-14.05.35-3.66.84-7.32,1.43-11.06.45-3.66,1.08-7.48,1.68-11.06,2-12.22,4.5-23.88,7.5-34.95.43-2.11,1.08-4.18,1.68-6.17.35-1.51.82-3.15,1.43-4.5.08-.52.23-.95.31-1.43.8-1.91,1.49-3.82,2.31-5.57,6.11-14.05,14.52-28.3,26.36-41.43,81.96-90.86,340.69-45.17,386.62-32.12,81,23.08,126.19,86.05,149.43,122.51,6.18,9.67,20.84,8,24.68-2.91,22.82-64.08,45.58-196.53,68.28-260.61h.08c3.19-8.99-3.52-18.47-13.09-18.47-128.2-.2-391.92-.44-520.16-.52.16-.16.39-.24.39-.24h-165.76c-110.67,0-99.75,129.07-99.75,184.08v1267.73Z"/>
      <path class="cls-1" d="M948.28,1859.77c-43.76-21.21-145.29-116.22-246.77-96.6,0,0,95.95-44.66,79.59-85.97,0,0-33.52-14.8-84.21-29.17-36.26-10.27-81.27-20.34-129.04-24.6-70.82-6.33-147.75,0-211.27,37.21l7.3,7.92c121.1,14.01,230.69,150.37,329.83,203.74,126.85,68.26,278.54-.91,254.58-12.54Z"/>
      <path class="cls-1" d="M1329.68,427.18c-39.53-89.11-106.48-161.75-216.38-153.27-128.89,9.99-107.32,169.35-10.02,165.17,46.03-1.95,62.9-23.16,67.79-57.35,5.52-38.45-22.41-53.61-22.41-53.61,0,0,113.74-19.22,186.52,183.24-12.17-17.31-85.38-46.41-115.05-49.59,0,0,3.23,139.38,125.13,246.96,66.64,58.75,119.24,115.26,118.24,163.7-21.25-46.45-49.61-76.18-79.94-82.99-72.7-16.08-88.38,74.39-38.45,87.28,25.68,6.65,41.51-2.39,48.18-17.55,8.61-19.7-.72-32.44-1.41-33.35,2.37,1.83,109.83,92.1,48.38,278.17,0,0-5.73,13.57-6.5,16.4-2.47,9.07,7.57,17.24,14.44,11.98,173.19-132.14,87.28-303.72,136.81-462.08l.04-.04c1.68-5.25-1.08-11.42-6.11-13.49-43.93-18.31-90.59,31.36-93.03,33.95,53.52-81.63,37.1-171.86,34.78-221.69-1.23-27.03-71.25,50.94-73.01,52.85,39.92-89.67-6.85-143.88,31.51-234.98,2.84-6.73-2.47-15.2-9.33-14.97-76.48,2.59-132.74,63.96-140.16,155.26Z"/>
      <path class="cls-1" d="M235.18,1395.13c18.34,13.53,36.13,15.36,58.3-5.25,46.77-43.54-18.42-127.92-88.13-79.4-62.81,43.78-60.45,108.1-32.62,168.2-66.8-103.32-86.54-214.25-48.45-296.39,11.16-24.04,40.71-63.56,97.98-54.33,55.12,8.99,77.6,69.57,35.33,117.77l-.04.04c-3.8,4.38-.92,11.38,4.91,11.38,63.19.4,131.08-110.84,56.54-211.54-47.18-63.8-144.4-45.09-149.22-44.18,3.75-2.59,68.71-48.99,77.28-149.53.27-3.82-2.76-7.09-6.65-7.09-14.6.08-49.69,3.74-85.54,32.88,6.86-7.72,167.09-189.81,9.09-349.57-3.35-3.42-9.17-1.51-9.93,3.22-31.94,217.95-204.69,514.18-139.41,767.16,17.9,69.25,106.11,210.63,273.21,322.46,7.12,4.74,8.42-5.97,3.07-10.39-7.26-6.01-14.33-12.14-21.19-18.39-139.4-191.12-49.36-232.32-49.36-232.32,0,0-5.66,20.1,14.83,35.26Z"/>
      <path class="cls-1" d="M201.32,371.69c17.03,13.69,37.85,39.24,49.16,94.57,18.02,87.96,15.75,192.24,54.25,272.04,16.03,33.23,54.87,77.53,87.12,97.83,11.17,6.53,13.25,0,6.95-9.43-102.82-124.74-19.55-325.57-9.57-455.8,10.2-133.41-13.84-206.56-86.87-257.19-6.85-4.78-16.22.76-15.34,9.07,1.62,15.52,2.19,38.92-2.99,68.1-9.77,54.77-21.17,140.58,14.33,180.85,0,0-55.13-37.81-95.51-16.44l-.04-.04c-6.3,3.34-7.02,11.98-1.48,16.44Z"/>
      <path class="cls-1" d="M1063.57,1207.34c60.49-43.34,81.25-117.8,46.36-166.32-34.89-48.52-112.23-52.72-172.72-9.38-60.49,43.34-81.23,117.8-46.34,166.32,34.89,48.52,112.21,52.72,172.7,9.38Z"/>
      <path class="cls-1" d="M1584.69,1203.52c-27.36-45.41-81.12-61.69-120.08-36.34-38.96,25.35-48.32,82.71-20.98,128.12,27.36,45.41,81.12,61.69,120.08,36.34,38.96-25.35,48.34-82.71,20.98-128.12Z"/>
      <path class="cls-1" d="M1329.6,1357.8c-29.28,40.8-17.12,110.65,27.18,156.02,44.31,45.37,103.93,49.11,133.19,8.36,29.28-40.79,17.12-110.65-27.18-156.02-44.31-45.37-103.94-49.11-133.19-8.36Z"/>
      <path class="cls-1" d="M1228.15,1427.21c-50.76-5.69-95.07,48-98.94,119.92-3.87,71.92,34.09,134.85,84.85,140.54,50.76,5.69,95.07-48,98.94-119.92,3.87-71.92-34.09-134.84-84.85-140.54Z"/>
      <path class="cls-1" d="M1057.93,1560.79c-46.2-28.86-109.1.76-140.53,66.07-31.41,65.35-19.45,141.69,26.77,170.51,46.22,28.86,109.1-.76,140.53-66.07,31.43-65.35,19.45-141.69-26.77-170.51Z"/>
      <path class="cls-1" d="M1297.45,1051.85c-63.17-16.79-131.96,35.3-153.6,116.38-21.66,81.07,12.04,160.44,75.21,177.23,63.17,16.8,131.96-35.3,153.6-116.38,21.66-81.07-12.04-160.43-75.21-177.23Z"/>
      <path class="cls-1" d="M1093.49,1467.72c49.61-48.91,53.33-125.42,8.32-170.89-45.01-45.47-121.7-42.69-171.31,6.22-49.61,48.91-53.33,125.42-8.32,170.89,45.01,45.48,121.7,42.69,171.31-6.22Z"/>
    </g>
  </g>
</svg>