<svg width="40" height="48" viewBox="0 0 40 48" fill="none" xmlns="http://www.w3.org/2000/svg">
<path d="M11.6438 0.313965H7.8193C7.47686 0.313965 7.26469 0.804266 7.5689 0.9602C7.98076 1.17122 11.058 2.44817 11.058 5.5141C11.058 8.58003 11.076 17.0889 11.09 19.8469C11.0752 22.6048 11.058 29.6056 11.058 32.5629C11.058 36.3627 8.7491 37.3681 7.69605 38.3037C7.4402 38.531 7.60323 38.95 7.94566 38.95H11.643C13.0198 38.95 14.136 37.8398 14.136 36.4705V4.89967C14.136 3.5304 14.1563 0.313965 11.6438 0.313965Z" fill="#FFFFF8"/>
<path d="M35.2688 0.792629C34.7017 2.38843 34.1323 5.6871 33.5629 7.28368C33.4677 7.55521 33.1003 7.5971 32.9459 7.35583C32.3648 6.44738 31.236 4.88028 29.2111 4.30464C28.0628 3.97958 21.5955 2.8415 19.5479 5.10448C19.2515 5.43109 19.0417 5.7864 18.8888 6.13629C18.8678 6.17973 18.8506 6.22783 18.8319 6.27515C18.8303 6.28679 18.8264 6.29765 18.8241 6.31161C18.8085 6.34575 18.7976 6.38531 18.7874 6.4241C18.7718 6.47376 18.757 6.52496 18.7453 6.57771C18.6704 6.85312 18.608 7.14404 18.5581 7.44815C18.5425 7.53737 18.5277 7.63279 18.516 7.72356C18.5004 7.81665 18.4894 7.90819 18.4793 7.99896C18.4621 8.11456 18.4504 8.23092 18.4411 8.34884C18.4356 8.40781 18.4294 8.47064 18.4255 8.53348C18.42 8.61339 18.4138 8.69718 18.4122 8.77863C18.399 8.99896 18.3935 9.22161 18.3935 9.45125C18.3935 10.4714 18.3919 12.0447 18.388 13.2588C18.388 13.4792 18.388 13.7018 18.3865 13.9237C18.3865 14.7026 18.3826 15.4877 18.3771 16.2549C18.3771 16.5839 18.3771 16.9066 18.3732 17.2224V17.6343C18.3717 18.4341 18.3654 19.1851 18.3615 19.8476C18.3631 20.1021 18.3631 20.3837 18.3654 20.6878C19.3171 19.0936 21.0519 16.8461 23.3686 16.6118C26.7118 16.272 28.9053 17.9896 31.456 17.2386C31.4786 17.227 31.4997 17.2193 31.5192 17.2162C31.7431 17.1595 31.7368 17.4597 31.6908 17.5792C31.6908 17.5792 31.6903 17.5805 31.6892 17.5831C31.6853 17.5947 31.6775 17.604 31.6721 17.6134C30.8507 18.7041 28.9841 20.8818 26.8904 21.3472C26.8085 21.3659 26.7259 21.3814 26.644 21.393C26.5847 21.4023 26.5277 21.4101 26.4684 21.4155C26.4209 21.4209 26.3733 21.4248 26.3249 21.4287C26.2524 21.4341 26.1798 21.4365 26.1073 21.4365C26.0441 21.4365 25.9809 21.4349 25.9185 21.431C23.0378 21.2673 20.3779 19.7739 18.374 22.6645C18.3857 25.6079 18.3951 29.3627 18.3951 31.5187C18.3951 35.3813 20.0573 37.4356 21.1096 38.3495C21.3483 38.5582 21.1954 38.9515 20.8764 38.9515H17.8085C16.4333 38.9515 15.3155 37.8437 15.3155 36.4721V4.8989C15.3155 3.52885 15.0424 0.313965 17.8085 0.313965H21.952C21.952 0.313965 21.9466 0.315516 21.9427 0.319395C25.1486 0.320947 31.7399 0.327153 34.9436 0.332584C35.1823 0.332584 35.3507 0.568425 35.2704 0.792629H35.2688Z" fill="#FFFFF8"/>
<path d="M31.6713 17.6126C30.8881 18.7297 28.9926 20.888 26.8897 21.3465C28.9833 20.881 30.8499 18.7033 31.6713 17.6126Z" fill="#FFFFF8"/>
<path d="M31.6908 17.5784C31.7368 17.459 31.7423 17.1587 31.5192 17.2154C31.7563 17.1471 31.7672 17.4279 31.6908 17.5784Z" fill="#FFFFF8"/>
<path d="M8.91135 41.6746L9.09388 41.8724C12.1204 42.2215 14.8599 45.6179 17.3381 46.9468C20.5082 48.6466 24.2999 46.9236 23.7009 46.6342C22.6073 46.1059 20.0698 43.7397 17.5331 44.2277C17.5331 44.2277 19.9309 43.116 19.5222 42.0865C19.5222 42.0865 18.6837 41.718 17.4169 41.3604C16.5113 41.1043 15.3857 40.8538 14.1914 40.7475C12.4215 40.59 10.4987 40.7483 8.91135 41.6746Z" fill="#FFFFF8"/>
<path d="M39.6152 17.0082C38.3773 20.9531 40.5247 25.2262 36.1955 28.5171C36.0239 28.6482 35.7735 28.445 35.8344 28.2184C35.8531 28.1478 35.9966 27.8096 35.9966 27.8096C37.5325 23.175 34.8468 20.9275 34.7876 20.8818C34.8047 20.9043 35.0379 21.2216 34.8219 21.7119C34.6557 22.0897 34.2602 22.3139 33.6183 22.1486C32.371 21.8275 32.7626 19.5738 34.5793 19.9749C35.3375 20.144 36.0465 20.8849 36.5777 22.0424C36.6027 20.836 35.2883 19.4279 33.6222 17.9648C30.5753 15.286 30.495 11.8143 30.495 11.8143C31.236 11.8942 33.0668 12.618 33.3702 13.0494C31.5512 8.00672 28.7087 8.48538 28.7087 8.48538C28.7087 8.48538 29.4061 8.8632 29.2688 9.8213C29.1463 10.6723 28.7243 11.2007 27.5745 11.2503C25.1424 11.355 24.6034 7.38531 27.8249 7.13628C30.5722 6.92527 32.2462 8.73441 33.2337 10.954C33.4194 8.67933 34.825 7.1518 36.7376 7.08741C36.9093 7.08198 37.0411 7.29299 36.9709 7.45979C36.0114 9.7282 37.1807 11.0796 36.1838 13.3124C36.2275 13.265 37.9779 11.3232 38.0083 11.9958C38.0653 13.2363 38.4763 15.4846 37.1394 17.5172C37.2002 17.4528 38.3656 16.2154 39.4647 16.6715C39.591 16.7227 39.6597 16.8771 39.6175 17.0082H39.6152Z" fill="#FFFFF8"/>
<path d="M6.43785 31.3402C7.49402 30.1393 6.93239 28.6304 5.55485 28.4062C4.12348 28.1765 3.38478 29.1602 3.10553 29.7592C2.15388 31.8057 2.64686 34.5683 4.31693 37.1408C3.62113 35.6435 3.56263 34.0415 5.13285 32.9508C6.87545 31.7421 8.50495 33.8437 7.33567 34.929C6.78185 35.4418 6.33644 35.3961 5.87778 35.0601C5.36608 34.6823 5.50726 34.1819 5.50726 34.1819C5.50726 34.1819 3.25685 35.2083 6.74128 39.9678C6.91289 40.1237 7.08918 40.2758 7.27015 40.4255C7.40354 40.5357 7.37155 40.8018 7.19371 40.6839C3.01738 37.898 0.812995 34.3774 0.365253 32.6521C-1.26659 26.3511 3.0517 18.9733 3.84968 13.5451C3.86918 13.4272 4.01427 13.3799 4.09774 13.4652C8.04707 17.4442 4.04235 21.9795 3.87074 22.1711C4.76701 21.445 5.64377 21.3542 6.00883 21.3519C6.10633 21.3519 6.18278 21.4334 6.17498 21.5288C5.96125 24.033 4.33721 25.1882 4.2436 25.2526C4.36373 25.2301 6.79433 24.7646 7.97296 26.3527C9.83569 28.8608 8.13911 31.6311 6.55954 31.6218C6.41445 31.6218 6.3419 31.4473 6.43707 31.3387L6.43785 31.3402Z" fill="#FFFFF8"/>
<path d="M5.0681 9.16265C4.91053 9.24566 4.89259 9.46056 5.03144 9.57227C5.45734 9.91284 5.97685 10.5498 6.26 11.9276C6.71008 14.1176 6.65392 16.715 7.61571 18.7033C8.01587 19.5311 8.98779 20.6343 9.79357 21.1393C10.072 21.3015 10.1243 21.1393 9.96674 20.9043C7.3973 17.798 9.47844 12.7949 9.72727 9.55132C9.98234 6.22861 9.38171 4.40704 7.55642 3.14561C7.38482 3.02691 7.1508 3.165 7.17265 3.37136C7.21399 3.75771 7.22725 4.3411 7.09776 5.06724C6.85361 6.43109 6.56812 8.56839 7.4558 9.57149C7.4558 9.57149 6.07903 8.62968 5.06888 9.16265H5.0681Z" fill="#FFFFF8"/>
<path d="M26.5846 30.3889C28.0965 29.3096 28.6151 27.455 27.7429 26.2465C26.8707 25.038 24.938 24.9332 23.4261 26.0125C21.9142 27.0918 21.3956 28.9465 22.2678 30.155C23.14 31.3635 25.0727 31.4683 26.5846 30.3889Z" fill="#FFFFF8"/>
<path d="M36.6066 29.3852C37.5801 28.7537 38.9241 29.1595 39.6082 30.2898C40.2923 31.4209 40.0575 32.8491 39.084 33.4806C38.1105 34.1121 36.7665 33.7064 36.0824 32.5761C35.3983 31.445 35.6331 30.0167 36.6066 29.3852Z" fill="#FFFFF8"/>
<path d="M33.9116 38.0175C32.8047 36.8871 32.4997 35.147 33.2314 34.1315C33.9631 33.116 35.4537 33.2099 36.5606 34.3402C37.6674 35.4705 37.9724 37.2106 37.2408 38.2262C36.5091 39.2417 35.0184 39.1478 33.9116 38.0175Z" fill="#FFFFF8"/>
<path d="M28.2227 38.8476C28.3195 37.0563 29.4271 35.7188 30.6955 35.8608C31.9638 36.0027 32.9131 37.5698 32.8164 39.3611C32.7189 41.1524 31.612 42.4899 30.3437 42.3479C29.0753 42.206 28.126 40.6389 28.2227 38.8476Z" fill="#FFFFF8"/>
<path d="M23.5987 45.0795C22.4442 44.3611 22.1439 42.4604 22.9294 40.8328C23.7141 39.206 25.2867 38.469 26.4419 39.1866C27.5964 39.905 27.8967 41.8057 27.1112 43.4333C26.3257 45.0601 24.7539 45.7971 23.5987 45.0795Z" fill="#FFFFF8"/>
<path d="M32.4279 26.5117C34.0075 26.9306 34.8484 28.9066 34.3078 30.9259C33.7665 32.9453 32.0473 34.2425 30.4685 33.8243C28.8889 33.4054 28.048 31.4294 28.5886 29.4101C29.1299 27.3907 30.8491 26.0935 32.4279 26.5117Z" fill="#FFFFF8"/>
<path d="M27.3298 36.8693C28.5695 35.6513 28.6627 33.7459 27.538 32.6136C26.4132 31.4812 24.4965 31.5506 23.2567 32.7686C22.017 33.9866 21.9238 35.8919 23.0486 37.0243C24.1733 38.1567 26.0901 38.0872 27.3298 36.8693Z" fill="#FFFFF8"/>
</svg>
